<svg xmlns="http://www.w3.org/2000/svg" width="95.967" height="88.252" viewBox="0 0 95.967 88.252">
  <g id="logo-s" transform="translate(0)">
    <path id="Path_1" data-name="Path 1" d="M102.314-240.244c0-.29,0-.869-.193-.966-.58-.869-.869-1.932-1.739-2.415-.1-.193-.1-.29-.386-.386-.1-.58,0-1.256-.29-1.449a9.2,9.2,0,0,0-2.7-2.415c-2.222-1.449-4.926-1.835-7.631-2.028-2.415-.1-4.83.193-7.244.29a27.639,27.639,0,0,0-6.182,1.063c-3.381.58-6.375,1.449-9.659,2.318l-9.466,2.7c-.29.1-.483.1-.676.386v.29c.773-.193,1.642-.58,2.125.58,0-1.449,1.256-1.739,2.222-2.028,1.545-.386,3.091-.966,4.83-1.256.29-.1.676-.29.773-.1.29.386.58.193.773,0a1.288,1.288,0,0,1,.58-.483c1.449-.29,3.091-.773,4.54-1.063a8.269,8.269,0,0,1,2.222-.483c1.449-.193,2.994-.29,4.83-.676.193.1.193.1.193.386,0,0,0,.1.193.1a16.346,16.346,0,0,0-3.671.676.863.863,0,0,1,.386.773,3.851,3.851,0,0,0-1.932-.676c-.58,0-1.352.483-2.125.386-.869,0-.773,1.159-1.449,1.352-.676-.869-.773-.966-1.545-.773-.773.29-1.449.676-2.028.869v.29a5.9,5.9,0,0,1,1.256-.29c-.386.29-.869.58-.869.773-.193.773-.773.483-1.352.483a1.439,1.439,0,0,1-.773.29,5.216,5.216,0,0,1-1.739,0,1.012,1.012,0,0,0,.58-.29,18.235,18.235,0,0,0,1.739-.58c.1,0,.1-.193.193-.386-.1-.193-.29-.29-.386-.193a1.87,1.87,0,0,1-1.256.58c-1.063,0-1.642.676-2.415,1.063a2.4,2.4,0,0,1-.773-.1v.773a6.305,6.305,0,0,0-1.063.193c.193-.193.29-.483.483-.58-.386,0-.869,0-.869.1-.193.773-.966.773-1.352,1.063a8.824,8.824,0,0,1-1.256.966s-.386-.1-.483-.29c0-.1-.193-.1-.193-.1-.483.966-1.449.29-2.222.386-.58.193-1.159-.29-1.449.58a6.833,6.833,0,0,1-1.159.193c-.1.58-.869,1.256-1.159,1.063l-.1-.483a8.708,8.708,0,0,0,1.063-.676,5.034,5.034,0,0,1-1.352-.193,3.855,3.855,0,0,1,1.256-.676l-.29-.1a31.411,31.411,0,0,0-3.864,1.449,4.915,4.915,0,0,1,.386,1.352,12.988,12.988,0,0,1,1.063-1.352,3.336,3.336,0,0,1,1.739-.483c0,.1.1.1.1.386a1.883,1.883,0,0,1-.773.1c-.193.1-.29.386-.676.483-.193.386-.29.773-.483.773a9.855,9.855,0,0,1-2.125.869,2.242,2.242,0,0,1-.966.386c.193-.1,0-.1,0-.1.29-.29.386-.483.773-.58a3.406,3.406,0,0,0-2.9,1.545c.1-.1.1-.386.1-.386a2.265,2.265,0,0,0-1.159-.193c.676-.676.869-.966,1.159-.966a5.833,5.833,0,0,0-2.125.58c-1.642.193-2.608,1.739-4.25,2.028a1.941,1.941,0,0,0-.773.386v.29l2.028-.29a3.062,3.062,0,0,1-.58.483c.483.1.58.1.773.29-.869.386-1.449,1.063-1.932,1.159-.193.193-.193.386-.29.386a1.466,1.466,0,0,0-1.835.869c0,.193-.193.193-.29.29a2.175,2.175,0,0,1-.676.1,3.841,3.841,0,0,1-2.994.773.863.863,0,0,1-.773.386c-.773.58-.966,1.063-.193,1.835a.1.1,0,0,0-.1.1c-.1-.1-.386-.1-.58-.1-.29-.1-.676-.483-.966-.483-.1,0-.193.483-.386.483a2.156,2.156,0,0,0-1.352.29,22.108,22.108,0,0,0-2.222,1.545,21.683,21.683,0,0,0-2.608,1.256l-.193-.1a17.637,17.637,0,0,1,1.545-1.256,2.4,2.4,0,0,0-.869.1c-.193,0-.386.1-.773.386-.1.1-.1.193-.193.193a.6.6,0,0,1-.386-.58,12.9,12.9,0,0,1-1.159.58,4.55,4.55,0,0,0,.869.29v.29a2.987,2.987,0,0,1-.773.193c-.386-.58-.869-.1-1.159.193-.386.193-.676.676-1.063.676a44.834,44.834,0,0,0-6.665,5.506,14.346,14.346,0,0,0-3.477,4.926,4.065,4.065,0,0,0-.676,2.7,13.221,13.221,0,0,0,.29,3.96,20.932,20.932,0,0,0,1.352,3.767c.676,1.159,1.932,1.932,2.9,2.9.29.29.869.29.966.483a3.448,3.448,0,0,0,1.739,1.545,8.063,8.063,0,0,0,1.545,1.159,18.888,18.888,0,0,0,2.511,1.159c-.1.1-.1.1-.1.193A4.983,4.983,0,0,0,16.54-196c1.159.29,2.511,0,3.284.483a15.124,15.124,0,0,1,2.9,1.159A26.968,26.968,0,0,1,26.3-193.01c.676.386,1.545.676,2.511,1.159a24.83,24.83,0,0,0,2.8,1.449,41.051,41.051,0,0,1,5.216,2.318c.966.386,1.932,1.159,3.091,1.545,1.256.676,2.511,1.835,4.153,2.222l.193.1a10.943,10.943,0,0,0,1.932,1.256l.29.386c.29.1.58.483,1.063.773a6.354,6.354,0,0,0-.386,1.449c.1,0,.1.1.193.1a6.125,6.125,0,0,0,.966-1.159,3.333,3.333,0,0,0,.869.773c-.483.29-.966.966-1.256,1.063a2.583,2.583,0,0,0-2.028.676v.193a25.9,25.9,0,0,0-2.9.483.5.5,0,0,0-.386.193c.1,0,.1.193.1.193a5.544,5.544,0,0,1,1.159.1c.29,0,.773.193.966.193.193-.29.193-.676.29-.676a5.766,5.766,0,0,0,2.608-.966h.193a18.606,18.606,0,0,1,1.932-.483c.193,0,.58,0,.676.1.193.1.193.386.29.676a1,1,0,0,0,.386.1l-1.256.773c.483.773.869.386,1.256.29,1.256-.483,1.642-.483,2.415.676a2.424,2.424,0,0,0,.676.773c.966.676.966,1.449.29,2.608a13.439,13.439,0,0,1-4.636,4.057c-.773.386-1.642.773-2.318,1.159-1.063.386-2.125.676-2.994.966-1.449.386-2.8.483-4.153.966a16.115,16.115,0,0,0-1.739.483c0,.1-.193.29-.193.483-.193-.676-.773-.676-1.352-.773-1.256-.193-2.8-.193-4.25-.386a3.537,3.537,0,0,1-1.739-.386,1.081,1.081,0,0,1-.193-1.739,9.1,9.1,0,0,1,.966-.966,5.626,5.626,0,0,1,1.835-.966c1.449-.773,3.091-1.159,4.733-1.932.193-.193.483-.29.483-.386.1-.386.193-.386.676-.386H40.4c0-.1.1-.483.1-.773-.1-.193-.29-.386-.483-.676-.869.58-1.545,1.352-2.9,1.256-.483-.1-1.739-.58-1.739.966a9.406,9.406,0,0,0-1.449-.966c.483-.193,1.063-.676,1.449-.773a8.77,8.77,0,0,0,1.352-.676c.483-.1,1.063-.29,1.835-.483a13.285,13.285,0,0,1,2.608-1.063,6.9,6.9,0,0,0,1.449-.773.337.337,0,0,1-.1-.193c-.58.1-1.063,0-1.545.1A13.664,13.664,0,0,0,38.66-176.3a.581.581,0,0,0-.386.1,5.669,5.669,0,0,0-1.932.58,8.943,8.943,0,0,0-.966.29c-.386.193-.966.386-1.449.676a3.286,3.286,0,0,0-.966.1c.1-.193.1-.58.29-.676v-.193a3.649,3.649,0,0,0-.869-.773c-1.545.966-3.188,1.642-4.83,2.7a3.823,3.823,0,0,0-2.125,2.125c-.29.483-.1,1.159-.386,1.739-.869,2.511.869,5.409,2.8,6.375,1.739,1.256,4.057.966,6.085,1.545a6.257,6.257,0,0,0,1.352,0,34.92,34.92,0,0,0,9.08-.966c1.642-.386,2.7-.869,4.057-1.256a51.865,51.865,0,0,0,6.955-3.477,4.159,4.159,0,0,0,2.415-3.767c-.1-.483.1-1.159,0-1.642-.1-1.159,0-2.511-1.063-3.477a6.791,6.791,0,0,1-1.159-2.608c-.483-.676-.29-.773.483-1.159a2.809,2.809,0,0,0,2.415-1.159c-.676-.193-.773-.193-1.352.483a3.564,3.564,0,0,1-3.284-.193v-.29c.483-.29.869-.676,1.449-.966-1.159-.58-2.125.676-2.9-.483.29,0,.483-.1.676-.1a.1.1,0,0,0,.1-.1c-.386-.1-.773-.1-1.063-.193a1.435,1.435,0,0,1-.869-.193,3.754,3.754,0,0,0-2.125-1.739A50.817,50.817,0,0,0,40.4-190.5a5.864,5.864,0,0,1-1.739-.966c-.193-.1-.58-.193-.966-.386,0,0-.193-.386-.29-.386-1.545-.676-3.091-1.642-4.636-2.318-1.352-.966-2.994-1.063-4.153-1.932a45.664,45.664,0,0,0-5.119-2.222c-1.545-.869-2.994-1.256-4.347-2.028-1.449-.58-2.7-1.159-4.057-1.739A32.569,32.569,0,0,1,12-204.118c-1.835-1.159-2.511-1.835-1.835-4.347a2.986,2.986,0,0,1,.193-.773l-.386-.1a19.062,19.062,0,0,0,.676-2.511c1.256.1,1.835-.676,2.028-1.835.193-.1.676-.29.773-.483a.541.541,0,0,0,.483-.58c.58-.773.966-1.352,1.835-1.545.193-.1.29-.386.386-.676.386-.29.386-.483.58-.869.773-.386,1.545-1.063,2.608-1.642l4.153-2.8c.483-.1,1.063-.483.773-1.159a5.05,5.05,0,0,0,1.159-.676c-.386.483-.483.676-.676.773,0,.29,0,.29.1.386.676-.966,2.028-.386,2.415-1.545-.29,0-.483-.193-.966-.193a8.491,8.491,0,0,1,.966-.483,27.271,27.271,0,0,1,4.057-2.125,36.065,36.065,0,0,1,5.8-2.9c.1-.1.386-.386.483-.386,2.318-.966,4.25-2.028,6.472-2.994,1.352-.676,3.091-.966,4.347-1.642a98.623,98.623,0,0,1,11.2-4.25c2.318-.869,4.83-1.256,7.341-2.028a12.749,12.749,0,0,1,2.125-.773c2.415-.58,4.83-1.256,7.341-1.739.193-.193.193-.29.29-.386a7.046,7.046,0,0,0,.966-.869c-.1.29,0,.29,0,.483a1.965,1.965,0,0,0-.1.483,4.68,4.68,0,0,1,1.642,0,11.541,11.541,0,0,1,2.125-.483,12.426,12.426,0,0,0,4.926-.483c.193-.193.29-.193.386-.193,1.739,0,3.188.1,4.636.1a1.965,1.965,0,0,1,.483.1,12.231,12.231,0,0,1,2.7.58,6.828,6.828,0,0,0,1.159.193,4.138,4.138,0,0,1-.966.29v.193a4.7,4.7,0,0,0,1.159.1,3.07,3.07,0,0,0,.869.29c1.352.1,1.642.483,1.352,1.642-.29,1.063-.29,1.063.676,1.352-.483.676-.676,1.642-1.256,2.222,0,.1-.193.29-.483.29-.1,0-.386-.193-.483-.193a1.024,1.024,0,0,1,.386-.58l.58-.869a2.061,2.061,0,0,0,.483-.773,6.156,6.156,0,0,0-.869.193c-.869.773-.966,2.222-2.125,2.8,0,.193-.1.193-.1.386,0,.1-.1.193,0,.386a3,3,0,0,0,.676.193.738.738,0,0,1,.193-.483c-.1-.966.483-.58.869-.773l.1.193a10.056,10.056,0,0,1-2.125,2.415c0-.483-.29-.58-.386-1.062a1.774,1.774,0,0,1-1.159.773s0,.29.193.386c.1,0,.58,0,.676.1.1,0,.193.29.193.386.1.1.1.29.386.386-.386.1-.483.29-.966.386a1.172,1.172,0,0,0-.483-.1,6.928,6.928,0,0,0,1.063-.676,2.04,2.04,0,0,0-1.932.676,33.553,33.553,0,0,0-3.477,2.994,2.84,2.84,0,0,0-.773.773c.676.869-.483.676-.966,1.063a1.053,1.053,0,0,0,1.739-.29,1.554,1.554,0,0,1,1.256-1.159.949.949,0,0,0,.676-1.449,4.163,4.163,0,0,0,1.642-1.256.874.874,0,0,1,.966,0,5.733,5.733,0,0,1-.386.773c-.193.193,0,.193,0,.193a8.981,8.981,0,0,0,.966-.483c.483-.483.966-1.256,1.449-1.835.966-1.159,2.125-2.415,3.091-3.477,0,0,.193-.1.193-.193l1.063-1.932a1.035,1.035,0,0,1,.58-.193c.1,0,.193.193.1.193-.1.773.193,1.932-.676,2.608-.966.869-1.063,1.932-1.256,3.284-.966-.29-1.352.1-1.352,1.063,0,.1,0,.483-.1.483-.58.58-.966,1.256-1.449,1.835a3.848,3.848,0,0,0-1.642,1.642c-.193.1-.193.58-.193.869.193.1.193.193.386.29.29,0,1.545-.773,1.545-1.159-.29-.869.386-1.449.773-1.932a1.1,1.1,0,0,1,.58-.29c.58.483.676-.1.869-.386.193-.386.483-.483.773-.676a3.392,3.392,0,0,1,.773-.966,30.326,30.326,0,0,0,2.415-3.091,1.617,1.617,0,0,0,.386-1.449A7.924,7.924,0,0,1,102.314-240.244Zm-20.671-8.017c-.193,0-.386.29-.386.483-.386.58-.966-.1-1.545.1a2.273,2.273,0,0,1-.193-.773A29.526,29.526,0,0,1,83-248.937a2.294,2.294,0,0,1,1.159-.29,2.627,2.627,0,0,1,.869,0A3.948,3.948,0,0,1,81.644-248.261Zm3.477.966c.29.1.773-.193,1.352-.193-.773-.773-1.545.29-2.222-.193a11.241,11.241,0,0,1,1.449-.58c.29.193.773.29.966.483C86.473-246.909,85.411-246.426,85.121-247.295Zm-4.926.676c-.773,0-1.352.483-2.222,0,.966-.29,1.545-.1,2.318-.29A.477.477,0,0,1,80.195-246.619Zm-6.085,1.449c0-.1-.193-.193-.29-.29a4.706,4.706,0,0,0-.773.966,1.966,1.966,0,0,0-.58-.676c-.483.193-.869.386-1.449.676a1.633,1.633,0,0,0-.193-.483l1.256-.58c-.29-.1-.29-.29-.483-.58a6.647,6.647,0,0,1,1.256.193.732.732,0,0,0,.386-.193c.483-.483.869-.58,1.352.1,0,.1.193.1.29.386A3.647,3.647,0,0,1,74.109-245.17Zm1.642-.386c0-.29,0-.29-.1-.386a4.217,4.217,0,0,0,1.449-.483.343.343,0,0,0,.193.29A11.215,11.215,0,0,0,75.751-245.556Zm-8.017,1.545-.1-.386a17.368,17.368,0,0,0,2.125-.58,1.05,1.05,0,0,1,.1.483A5.653,5.653,0,0,0,67.734-244.011ZM46-238.891c.29,0,.483.29.773.773a3.976,3.976,0,0,0,.29-.773c0-.193-.483-.773-.58-.676-.966.58-2.125.966-2.994,1.449a10.529,10.529,0,0,0,1.642-.1C45.035-238.795,45.711-238.988,46-238.891ZM42.234-235.9c0-.386-.29-.483-.29-.676a7.79,7.79,0,0,0-1.159,1.352c-.29,0-.29-.386-.386-.386a.666.666,0,0,1,.483-.29.656.656,0,0,1,.29-.386l.29-.773a8.829,8.829,0,0,1,1.352.676A.94.94,0,0,0,42.234-235.9Zm-5.119,1.835s-.1-.1,0-.29a9.493,9.493,0,0,1-1.545.483c-.58.29-1.159,0-1.739-.1l-.1.386a14.309,14.309,0,0,0,1.835.29C36.245-233.289,36.631-233.965,37.114-234.062ZM23.978-227.88c.966.483,1.835-.676,2.7-.869,1.159-.58,2.415-1.835,3.864-2.028a16.805,16.805,0,0,0,1.739-1.063.642.642,0,0,0-.386-.483c1.063,0,1.835.29,2.511-.483-.676-.386-1.545.773-2.125-.483a8.343,8.343,0,0,0-1.545.966c-.193.58-.386.773-1.159.58a.5.5,0,0,0-.386.193,3.649,3.649,0,0,1-1.159.869c-.1.29-.193.676-.483.773-.58.1-1.352.483-2.125.58-.1,0-.1,0-.29.1l.483.193a4.631,4.631,0,0,1-2.222.483,17.919,17.919,0,0,0-1.739,1.159,1.679,1.679,0,0,0,1.063.58A4.089,4.089,0,0,0,23.978-227.88Zm60.467,2.511-.869.773v.29c.386-.193.676-.1.869-.193a6.259,6.259,0,0,0,1.739-1.545c.676-.483,1.545-.869,2.415-1.546.483-.676,1.063-1.159,1.449-1.739,0-.1-.1-.1-.1-.193a7.823,7.823,0,0,0-1.256.58,7.131,7.131,0,0,1-2.415,2.028c-.193,0-.193.193-.29.29A4.914,4.914,0,0,0,84.445-225.368Zm7.824-2.8c-.1.386-.483.58-.773.773.193.386.58.483.773.676-.193.58-.58.58-.869.386-.29,0-.483-.193-.58-.193a4.582,4.582,0,0,0-1.159,0,15.9,15.9,0,0,0,.193,2.028l-.1.386a11.3,11.3,0,0,0,2.415-1.063c.193,0,.193-.29.386-.676a2.692,2.692,0,0,0,.1-.966h.193C92.462-227.107,92.462-227.59,92.269-228.17Zm-5.8.386a1.416,1.416,0,0,0-.386-.193.73.73,0,0,0-.386.1c-.29.1-.483.483-.676.58l.1.193a1.588,1.588,0,0,0,.869-.193C86.087-227.3,86.473-227.59,86.473-227.783Zm-2.222.386a20.56,20.56,0,0,1-2.415,1.545,3.368,3.368,0,0,0,3.188-.676A1.7,1.7,0,0,1,84.252-227.4Zm5.7,2.8a2.307,2.307,0,0,0,.193-.869,5.216,5.216,0,0,0,1.159-.386C90.723-225.175,90.24-224.982,89.951-224.6ZM17.7-223.05c.676-1.256,1.835-1.545,2.608-2.125.193,0,.193,0,.193.1A17.557,17.557,0,0,1,17.7-223.05Zm60.853,0c-.58.869-1.545,1.545-2.028,1.063-1.063.193-1.352.869-1.835,1.449,0,.386-.483.386-.869.773.676.386.966.386,1.449-.1a2.794,2.794,0,0,1,1.063-1.063c.193-.193.676-.29.773-.386a16.321,16.321,0,0,0,2.608-1.642c-.1-.58.1-.773.966-.773.29.1.483-.193.676-.483a2.48,2.48,0,0,0-1.159-.483C79.518-223.437,79.325-222.954,78.553-223.05Zm9.756-1.545c-.773.29-.966.869-1.449,1.063,1.063.966,1.642.869,2.415-.193C88.695-223.63,88.308-223.726,88.308-224.6ZM81.74-222.76c.193-.193.483-.58.773-.676.483-.1.58-.29.58-1.063-.869.773-1.449,1.159-2.222,1.739C81.45-222.277,81.45-222.277,81.74-222.76Zm4.733,0c.1-.1-.386-.29-.773-.1l-2.028,1.545s0,.193.29.386a8.975,8.975,0,0,1,.966-.483c0,.1.1.1.193.193a3.232,3.232,0,0,1-1.642.966c-.1,0-.1-.1-.193-.1a1.644,1.644,0,0,0,.1-.676,2.287,2.287,0,0,1-.966-.29c-.193.193,0,.193,0,.29-.386.386-.773.773-1.256,1.352a8.835,8.835,0,0,0-1.352.676c-.29.1-.386.29-.773.58a4.128,4.128,0,0,0-1.159.58,1.541,1.541,0,0,0,.29.773c.29.483.29.483-.386.58a6.151,6.151,0,0,0-1.739.966c-.676.386-1.256,1.352-1.932.386-.1-.193-.193-.193-.386,0-.773.193-1.352.483-.966,1.642a6.305,6.305,0,0,1-.773-.676c-.676.676-1.449,1.063-2.222,1.739-.386.193-.773.193-.58,1.063a2.265,2.265,0,0,0-1.063-.193l-.676-.1c-.386.386-.676.869-1.159,1.063-.29.386-.676.386-1.063.58-.869.193-1.739.1-1.835,1.256-.676-.483-1.545,0-2.028.966-.386.1-1.063.193-1.063.29-.1.483-.1.676-.676.58a5.1,5.1,0,0,1-1.256-.1c-.386-.676-.773-1.063-1.932-.483a9.544,9.544,0,0,1,.869-1.449c.29-.193.483-.29.58-.483,0,.386.193.483.386,1.063.193-.58.193-.773.29-1.063a2.073,2.073,0,0,1,.676.386c.1-.1.1-.1.29-.1a10.02,10.02,0,0,1-.386-.966,2.4,2.4,0,0,0-.773.1c-.483.1-.483.29-.773.386-.483.193-1.159.193-1.545.483a.477.477,0,0,1-.1-.29l.869-.58c.1-.1.29-.1.386-.193.193-.29.483-.58.58-.483.676.58,1.449-.193,2.028-.676.483-.29,1.159-1.159,1.835-1.063.966-.1,1.739-1.256,3.188-1.256-.483.29-.483.483-.676.58a17.64,17.64,0,0,0-1.545,1.256c-.676.1-1.352.386-1.835.386-.58.1-.966.483-.966,1.352,1.159-.58,2.028-.966,2.994-1.352.1.1.1.386.1.676a8.818,8.818,0,0,1,1.256-.773c0-.193-.193-.483,0-.483.773-.58,1.352-1.159,2.125-1.642.58-.1.58-.193.676-.773-.483.29-.869.29-1.159.483-.1-.193-.1-.193-.193-.193l.483-.773a12.061,12.061,0,0,0,1.159-.773c-.773.29-2.028-.1-2.222,1.159a1.307,1.307,0,0,1-.676-.966,28.594,28.594,0,0,0-2.511,1.546.1.1,0,0,1,.1.1c.773-.193,1.449-.676,2.125-.869l.193.1c-.869.58-1.739.966-2.608,1.546-.386.1-.676-.193-1.256-.193a.337.337,0,0,1-.1.193c-.29.193-.966.193-.966.483-.773,1.063-1.642.869-2.608,1.159-.29.1-.58,0-.773.1-1.159.58-2.222,1.256-3.284,1.739-2.028.869-4.057,1.932-6.085,2.7a32.86,32.86,0,0,1-5.409,2.028c-1.159.58-2.8.869-4.25,1.449-.676.1-.966.869-.966,1.449a1.433,1.433,0,0,1,0,1.256v.58c.193.58.193,1.256.386,1.932.1.29,0,.773.1,1.063A11.811,11.811,0,0,0,38.273-196c.773.386,1.739-.1,2.7-.29,1.063-.29,2.028-.869,3.091-1.159,2.7-1.159,5.8-2.318,8.6-3.574,2.608-1.063,5.119-2.318,7.631-3.574.1-.29.193-.29.386-.386a7.62,7.62,0,0,0,2.8-1.739,2.287,2.287,0,0,0,.966-.29c.386-.29.386-.773.483-.966.193-.1.773.193.966,0a6.747,6.747,0,0,0,2.028-1.063,7.282,7.282,0,0,0,1.256-.58.1.1,0,0,0-.1-.1,2.518,2.518,0,0,0-1.063.29c.869-1.256,2.028-1.932,2.8-1.159a20.436,20.436,0,0,1,1.932-1.159c-.483-.483.1-.869.386-1.159.58-.483,1.063-.773,1.835-.29-.193-.773.386-.966,1.063-1.352a9.569,9.569,0,0,1,1.739-.193l-.386-.676a2.17,2.17,0,0,0,1.545-1.835,1.145,1.145,0,0,1,.483.869,7.157,7.157,0,0,0,1.159-1.256c.1,0,.29.193.386.386a11.117,11.117,0,0,1,1.642-1.352c.483-.386,1.642-.29,1.932-1.063v-.193c.29-.386.676-.773.676-1.063a1.457,1.457,0,0,1,1.352-.869c.193,0,.386.29.869.483a6.843,6.843,0,0,1,.1-1.352C86.956-222.277,86.666-222.084,86.473-222.76Zm-73.99,3.767s-.193,0-.193-.29a.989.989,0,0,0,.483-.58,1.964,1.964,0,0,1,.58-.869c.193-.193.386-.483.58-.483.483-.1.773-.1,1.159-.193.676-.58,1.063-1.159,1.545-1.352a.962.962,0,0,1,.869-.1C15.767-221.408,14.125-220.249,12.483-218.993Zm66.456-2.415a5.5,5.5,0,0,0-2.415,1.545l-2.415,1.256c-1.739,1.256-3.477,2.028-5.216,3.091-.58.193-.966.58-1.352.676a2.347,2.347,0,0,0,.58.966,5.627,5.627,0,0,0,1.449-1.063,3.646,3.646,0,0,1,1.159-.966,6.344,6.344,0,0,1,2.318-1.352.8.8,0,0,0,.676-.58c.1-.1.29-.386.386-.386,1.545-.386,2.8-1.545,4.153-2.125.193-.676.773-.676,1.159-.869a2.632,2.632,0,0,0,1.159-.58,1.965,1.965,0,0,0-.1-.483c-.1.1-.29,0-.773.1A5.726,5.726,0,0,0,78.939-221.408Zm-5.892,1.739c-.29.29-.29.58-.58.58-.193.193-.676.386-.869.29-.966-.193-1.063-.193-1.449.58-.29.193-.58,0-1.063.193-.676.386-1.159.773-1.642,1.063v.29c-.193.193-.193.386-.193.869.869.483,1.063-.676,2.028-.676.676-.1,1.352-.869,2.028-1.352a3.567,3.567,0,0,1,2.608-1.063A3.333,3.333,0,0,1,73.047-219.669Zm8.21,1.449a2.981,2.981,0,0,1-.966-.483c.1,0,.1-.193.1-.29a1.34,1.34,0,0,0,.869,0,1.4,1.4,0,0,1,.193.676C81.354-218.317,81.354-218.221,81.257-218.221Zm-25.694,9.176a1.907,1.907,0,0,1-1.159.58A.785.785,0,0,1,55.563-209.044Zm.483,3.767c-.386,0-.483,0-.676-.193-.29,0-.1-.193-.1-.193a2.981,2.981,0,0,0,.966-.483A1.436,1.436,0,0,1,56.046-205.277ZM71.4-191.368c-.1.193-.193.193-.676.29.1-.1,0-.29,0-.483-.1-.193-.386-.29-.676-.676,0-.773,1.159-.193,1.449-.676a2.719,2.719,0,0,0-.1-.773,1.637,1.637,0,0,1,.773.58,15.44,15.44,0,0,0,0-2.125c-.1-2.222-.58-4.25-2.994-5.023l-1.642-.773a.973.973,0,0,1-.1.29.765.765,0,0,0,.483.773,2.675,2.675,0,0,1,1.642,2.994,4.1,4.1,0,0,1-.193,2.125c-.483.483-.58,1.159-1.063,1.932.58.193.773.193.966.29-.869,1.545-1.546,2.028-2.415,1.835a3.418,3.418,0,0,1-.966,1.545,12.811,12.811,0,0,1-2.608,2.511c-1.545.869-3.091,1.642-4.733,2.415a2.1,2.1,0,0,1-.676.58c.1.193.1.193.386.386a.386.386,0,0,1,.386-.193,12.628,12.628,0,0,1,2.7-1.739c.386-.193.483-.483.676-.58,1.352-.773,2.8-1.545,3.96-2.318a1.032,1.032,0,0,0,.483-.29,10.768,10.768,0,0,0,.966-.869,12.547,12.547,0,0,0,1.159-1.352c.676-.676,1.256-.869,1.545-.193.386.193.193.58.386.869,1.159-.483,2.222-1.835,1.545-2.608C71.791-192.237,71.694-191.754,71.4-191.368Zm-39.023-2.994.193.193c-.483.483-.29.58.386.58.193.29.58.29.773.483,0,.1,0,.1-.1.193l-1.545-.386a1.965,1.965,0,0,0-.1-.483C31.995-193.976,32.285-194.169,32.381-194.362ZM69.666-193.3a.973.973,0,0,1-.29-.1c.193-.386.483-.483.483-.773.1,0,.193.1.193.29Zm-1.739.29a3.144,3.144,0,0,0-.386,1.352,3.427,3.427,0,0,0,.676-.1,2.963,2.963,0,0,1-.1-1.256Zm-27.722,3.091a6.742,6.742,0,0,1,1.739.869,4.619,4.619,0,0,0-1.159.483c-.386-.483-.58-1.063-.869-1.256C40.012-189.919,40.012-189.919,40.205-189.919Zm29.654,1.352q0,.145-.58,0a.581.581,0,0,0-.386.1s0,.386.1.386c0,.1.193.193.386.1a6.921,6.921,0,0,0,1.449-1.063c-.193,0-.193-.1-.29-.1C70.342-189.049,70.149-188.76,69.859-188.567ZM45.9-186.731c.1.29.386.58.483.869,0,.1-.1.1-.386.193a1.879,1.879,0,0,0-.773-.773A1.681,1.681,0,0,1,45.9-186.731Zm20.478.676c-.1,1.063-.869.676-1.352.58-.676,1.352-1.932,1.739-2.994,2.318l-1.352.58c-.386.193-.483.676-.869,1.159v.193a28.989,28.989,0,0,0,2.511-1.449,7.458,7.458,0,0,0,1.835-1.449c.29-.193.869-.29,1.159-.676.483-.1.966-.193,1.159-.483C66.865-185.476,66.961-185.959,66.382-186.055Zm-11.881,2.7c.869-.1,1.449-.58,2.222-.58C56.336-184.7,55.467-184.413,54.5-183.351Zm2.318,0a7.283,7.283,0,0,0-1.256.58c.676,0,.966.1,1.739.1A6.589,6.589,0,0,0,56.819-183.351ZM43.1-179.68c0,.193-.1.29-.1.386.29.1.58.386.966.386a.724.724,0,0,1,.1-.483A2.559,2.559,0,0,0,43.1-179.68Zm-2.9,1.063a3.431,3.431,0,0,1-.869.386.568.568,0,0,1,.193.483c.483-.29.676-.483.869-.483Zm-3.477,1.545c.676.676.869.193,1.352-.483h.676a3.389,3.389,0,0,0-.483-.773c-.676.676-1.352,1.256-2.125.773C36.342-177.169,36.728-177.169,36.728-177.072Zm4.057,2.222.386.193a2.914,2.914,0,0,0,1.545-.483c.676-.193,1.545-.773,2.125-.29A4.672,4.672,0,0,1,46-176.4a29.926,29.926,0,0,0,3.671-.676,2.106,2.106,0,0,1-.1-.58,4.022,4.022,0,0,0-1.642.193c-.676,0-1.063.386-1.545.386-.58.29-1.159.58-1.642.869a5.05,5.05,0,0,1-1.545.58l-2.028.29C41.075-175.333,40.978-174.947,40.785-174.85ZM34.7-175.72a5.99,5.99,0,0,1,.386-1.352c-.676.193-1.545.1-1.642,1.159C33.83-175.623,34.313-175.333,34.7-175.72Zm-2.9.966a.817.817,0,0,0,.58-.193,6.377,6.377,0,0,1-.1,1.352C31.705-173.884,31.512-174.367,31.8-174.754Zm1.739,1.159s0,.29.1.386a4.958,4.958,0,0,0-.966.386.36.36,0,0,1-.29-.386C32.768-173.3,33.154-173.5,33.54-173.595Zm12.654,7.921c.193.1.483.483.58.483-.386.1-.966.1-1.642.193a3.937,3.937,0,0,1-.676-.193c-.773-.386-1.256.193-1.352.966-.676.1-1.256.29-1.642.29a1.911,1.911,0,0,1-1.063-.193c.386-.193.676-.193.773-.483v-.193a11.8,11.8,0,0,0-2.511.58.1.1,0,0,1-.1.1c.193.1.483.1.676.193v.29c-1.159,0-2.511.1-3.767.193.386-.773.869-.869,1.352-.58a1.277,1.277,0,0,0,1.159-.193,2.905,2.905,0,0,1,1.352-.676,2.176,2.176,0,0,0-.1-.676,3.19,3.19,0,0,0,2.8.1c.386,0,.483-.29.58-.29a3.621,3.621,0,0,0,2.608-.58c1.545-.386,3.091-.869,4.636-1.256C48.9-166.833,47.643-166.543,46.194-165.674Zm-11.2.869c-.29-.1-.773.1-1.256.1a2.583,2.583,0,0,0-2.222-.1,1.522,1.522,0,0,1-.676-.676c-.1,0-.1-.193-.1-.193.1-.1.29-.29.386-.29a7.738,7.738,0,0,1,2.511.29,9.771,9.771,0,0,1,2.8.386C35.955-164.9,35.762-164.225,34.989-164.8Z" transform="translate(-6.347 249.922)" fill="#0e1109"/>
    <path id="Path_5" data-name="Path 5" d="M3.48,2.426h.161c.054-.161.161-.161.322-.107,0,.054.054.054.107,0,.269-.054.376-.322.484-.537s.161-.484.269-.752c0-.054.054-.107.054-.161A.764.764,0,0,0,4.985.545c.054-.161,0-.269.054-.376l.215-.376a2.509,2.509,0,0,1,.269-.537,7.468,7.468,0,0,0,.591-1.128c.107-.43.376-.806.215-1.289a1.8,1.8,0,0,1,0-.537v-.107a3.168,3.168,0,0,0-.215-.43L5.952-4.4A2.088,2.088,0,0,0,5.146-4.5a1.453,1.453,0,0,0-.806.161,6.017,6.017,0,0,1-1.182.484.566.566,0,0,1-.645-.161,1.322,1.322,0,0,0-.591-.215.511.511,0,0,0-.537.215.484.484,0,0,0,0,.591,1.635,1.635,0,0,1,.107,1.236c0,.161-.161.269-.161.376.054.215-.054.322-.161.484,0,.054-.054.054-.054.107,0,.215-.054.43-.054.645C1.009-.368.9-.153.848.062.848.169.9.33.9.492V.6c.107.376.484.537.806.752a3.046,3.046,0,0,1,.7.43L2.782,2c.054.054.215.054.269.107Z" transform="translate(55.502 77.478)" fill="#0e1109"/>
  </g>
</svg>
